<?xml version="1.0" encoding="UTF-8" standalone="no"?>
<svg xmlns="http://www.w3.org/2000/svg" xmlns:xlink="http://www.w3.org/1999/xlink" width="1500" height="1752" viewBox="0 0 1500 1752">
<rect x="0" y="0" width="1500" height="1752" fill="#ffffff"/>
<text x="750.0" y="34" text-anchor="middle" font-family="Calibri, Arial, sans-serif" font-size="21" font-weight="700" fill="#1F3864">Helpdesk Atlas — Planning projet (PRA/DR)</text>
<text x="750.0" y="56" text-anchor="middle" font-family="Calibri, Arial, sans-serif" font-size="12.5" fill="#555555">Du 05/01/2026 au 12/06/2026 &#8212; 115 jours ouvr&#233;s (&#8776; 23 semaines) &#8212; RPO &#8804; 20 min / RTO &#8804; 40 min</text>
<line x1="30" y1="70" x2="1470" y2="70" stroke="#cccccc" stroke-width="1"/>
<line x1="646.8" y1="142" x2="646.8" y2="1590" stroke="#dddddd" stroke-width="1" stroke-dasharray="2,3"/>
<text x="649.8" y="138" font-family="Calibri, Arial, sans-serif" font-size="10.5" fill="#666666">Feb 2026</text>
<line x1="811.8" y1="142" x2="811.8" y2="1590" stroke="#dddddd" stroke-width="1" stroke-dasharray="2,3"/>
<text x="814.8" y="138" font-family="Calibri, Arial, sans-serif" font-size="10.5" fill="#666666">Mar 2026</text>
<line x1="994.5" y1="142" x2="994.5" y2="1590" stroke="#dddddd" stroke-width="1" stroke-dasharray="2,3"/>
<text x="997.5" y="138" font-family="Calibri, Arial, sans-serif" font-size="10.5" fill="#666666">Apr 2026</text>
<line x1="1171.2" y1="142" x2="1171.2" y2="1590" stroke="#dddddd" stroke-width="1" stroke-dasharray="2,3"/>
<text x="1174.2" y="138" font-family="Calibri, Arial, sans-serif" font-size="10.5" fill="#666666">May 2026</text>
<line x1="1353.9" y1="142" x2="1353.9" y2="1590" stroke="#dddddd" stroke-width="1" stroke-dasharray="2,3"/>
<text x="1356.9" y="138" font-family="Calibri, Arial, sans-serif" font-size="10.5" fill="#666666">Jun 2026</text>
<line x1="470" y1="142" x2="1460" y2="142" stroke="#999999" stroke-width="1"/>
<rect x="10" y="150" width="1490" height="24" fill="#8cb6ce" opacity="0.9" rx="3"/>
<text x="18" y="167" font-family="Calibri, Arial, sans-serif" font-size="12.5" font-weight="700" fill="#ffffff">Phase 1 — Cadrage &amp; analyse des besoins</text>
<text x="18" y="194.0" font-family="Calibri, Arial, sans-serif" font-size="11" fill="#222222">Réunion de lancement &amp; recueil des besoins client</text>
<rect x="487.7" y="182" width="17.7" height="16" rx="3" ry="3" fill="#8cb6ce" stroke="#555555" stroke-width="0.6" opacity="0.92"/>
<circle cx="511.4" cy="190.0" r="7" fill="#2E74B5" stroke="#ffffff" stroke-width="1" opacity="1.0"/>
<text x="511.4" y="193.2" text-anchor="middle" font-family="Calibri, Arial, sans-serif" font-size="8" font-weight="700" fill="#ffffff">H</text>
<circle cx="526.4" cy="190.0" r="6" fill="#2E9E5B" stroke="#ffffff" stroke-width="1" opacity="0.75"/>
<text x="526.4" y="193.2" text-anchor="middle" font-family="Calibri, Arial, sans-serif" font-size="8" font-weight="700" fill="#ffffff">Q</text>
<circle cx="541.4" cy="190.0" r="6" fill="#C0392B" stroke="#ffffff" stroke-width="1" opacity="0.75"/>
<text x="541.4" y="193.2" text-anchor="middle" font-family="Calibri, Arial, sans-serif" font-size="8" font-weight="700" fill="#ffffff">T</text>
<circle cx="556.4" cy="190.0" r="6" fill="#8E44AD" stroke="#ffffff" stroke-width="1" opacity="0.75"/>
<text x="556.4" y="193.2" text-anchor="middle" font-family="Calibri, Arial, sans-serif" font-size="8" font-weight="700" fill="#ffffff">C</text>
<rect x="10" y="202" width="1490" height="24" fill="#f5f5f5"/>
<text x="18" y="218.0" font-family="Calibri, Arial, sans-serif" font-size="11" fill="#222222">Rédaction du référentiel d'exigences (fonctionnelles / non fonc...</text>
<rect x="505.4" y="206" width="35.4" height="16" rx="3" ry="3" fill="#8cb6ce" stroke="#555555" stroke-width="0.6" opacity="0.92"/>
<circle cx="546.7" cy="214.0" r="7" fill="#2E9E5B" stroke="#ffffff" stroke-width="1" opacity="1.0"/>
<text x="546.7" y="217.2" text-anchor="middle" font-family="Calibri, Arial, sans-serif" font-size="8" font-weight="700" fill="#ffffff">Q</text>
<text x="18" y="242.0" font-family="Calibri, Arial, sans-serif" font-size="11" fill="#222222">Analyse de risques préliminaire &amp; BIA (impact métier)</text>
<rect x="505.4" y="230" width="29.5" height="16" rx="3" ry="3" fill="#8cb6ce" stroke="#555555" stroke-width="0.6" opacity="0.92"/>
<circle cx="540.8" cy="238.0" r="7" fill="#2E74B5" stroke="#ffffff" stroke-width="1" opacity="1.0"/>
<text x="540.8" y="241.2" text-anchor="middle" font-family="Calibri, Arial, sans-serif" font-size="8" font-weight="700" fill="#ffffff">H</text>
<rect x="10" y="250" width="1490" height="24" fill="#f5f5f5"/>
<text x="18" y="266.0" font-family="Calibri, Arial, sans-serif" font-size="11" fill="#222222">Validation du cadrage par le comité de pilotage</text>
<polygon points="543.6607142857143,255.0 550.6607142857143,262.0 543.6607142857143,269.0 536.6607142857143,262.0" fill="#8cb6ce" stroke="#333333" stroke-width="1"/>
<circle cx="552.6" cy="262.0" r="7" fill="#C0392B" stroke="#ffffff" stroke-width="1" opacity="1.0"/>
<text x="552.6" y="265.2" text-anchor="middle" font-family="Calibri, Arial, sans-serif" font-size="8" font-weight="700" fill="#ffffff">T</text>
<circle cx="567.6" cy="262.0" r="6" fill="#8E44AD" stroke="#ffffff" stroke-width="1" opacity="0.75"/>
<text x="567.6" y="265.2" text-anchor="middle" font-family="Calibri, Arial, sans-serif" font-size="8" font-weight="700" fill="#ffffff">C</text>
<rect x="10" y="286" width="1490" height="24" fill="#8cb6ce" opacity="0.9" rx="3"/>
<text x="18" y="303" font-family="Calibri, Arial, sans-serif" font-size="12.5" font-weight="700" fill="#ffffff">Phase 2 — Conception de l'architecture</text>
<text x="18" y="330.0" font-family="Calibri, Arial, sans-serif" font-size="11" fill="#222222">Benchmark des solutions techniques (firewall, helpdesk, supervi...</text>
<rect x="546.6" y="318" width="35.4" height="16" rx="3" ry="3" fill="#8cb6ce" stroke="#555555" stroke-width="0.6" opacity="0.92"/>
<circle cx="588.0" cy="326.0" r="7" fill="#2E9E5B" stroke="#ffffff" stroke-width="1" opacity="1.0"/>
<text x="588.0" y="329.2" text-anchor="middle" font-family="Calibri, Arial, sans-serif" font-size="8" font-weight="700" fill="#ffffff">Q</text>
<rect x="10" y="338" width="1490" height="24" fill="#f5f5f5"/>
<text x="18" y="354.0" font-family="Calibri, Arial, sans-serif" font-size="11" fill="#222222">Conception du plan réseau &amp; segmentation VLAN (MGMT/DMZ/ADMIN)</text>
<rect x="582.0" y="342" width="41.2" height="16" rx="3" ry="3" fill="#8cb6ce" stroke="#555555" stroke-width="0.6" opacity="0.92"/>
<circle cx="629.2" cy="350.0" r="7" fill="#2E9E5B" stroke="#ffffff" stroke-width="1" opacity="1.0"/>
<text x="629.2" y="353.2" text-anchor="middle" font-family="Calibri, Arial, sans-serif" font-size="8" font-weight="700" fill="#ffffff">Q</text>
<text x="18" y="378.0" font-family="Calibri, Arial, sans-serif" font-size="11" fill="#222222">Rédaction du dossier d'architecture technique (DAT)</text>
<rect x="623.2" y="366" width="47.1" height="16" rx="3" ry="3" fill="#8cb6ce" stroke="#555555" stroke-width="0.6" opacity="0.92"/>
<circle cx="676.4" cy="374.0" r="7" fill="#2E9E5B" stroke="#ffffff" stroke-width="1" opacity="1.0"/>
<text x="676.4" y="377.2" text-anchor="middle" font-family="Calibri, Arial, sans-serif" font-size="8" font-weight="700" fill="#ffffff">Q</text>
<circle cx="691.4" cy="374.0" r="6" fill="#2E74B5" stroke="#ffffff" stroke-width="1" opacity="0.75"/>
<text x="691.4" y="377.2" text-anchor="middle" font-family="Calibri, Arial, sans-serif" font-size="8" font-weight="700" fill="#ffffff">H</text>
<rect x="10" y="386" width="1490" height="24" fill="#f5f5f5"/>
<text x="18" y="402.0" font-family="Calibri, Arial, sans-serif" font-size="11" fill="#222222">Revue d'architecture &amp; arbitrages</text>
<polygon points="676.25,391.0 683.25,398.0 676.25,405.0 669.25,398.0" fill="#8cb6ce" stroke="#333333" stroke-width="1"/>
<circle cx="688.1" cy="398.0" r="7" fill="#C0392B" stroke="#ffffff" stroke-width="1" opacity="1.0"/>
<text x="688.1" y="401.2" text-anchor="middle" font-family="Calibri, Arial, sans-serif" font-size="8" font-weight="700" fill="#ffffff">T</text>
<circle cx="703.1" cy="398.0" r="6" fill="#2E74B5" stroke="#ffffff" stroke-width="1" opacity="0.75"/>
<text x="703.1" y="401.2" text-anchor="middle" font-family="Calibri, Arial, sans-serif" font-size="8" font-weight="700" fill="#ffffff">H</text>
<circle cx="718.1" cy="398.0" r="6" fill="#2E9E5B" stroke="#ffffff" stroke-width="1" opacity="0.75"/>
<text x="718.1" y="401.2" text-anchor="middle" font-family="Calibri, Arial, sans-serif" font-size="8" font-weight="700" fill="#ffffff">Q</text>
<circle cx="733.1" cy="398.0" r="6" fill="#8E44AD" stroke="#ffffff" stroke-width="1" opacity="0.75"/>
<text x="733.1" y="401.2" text-anchor="middle" font-family="Calibri, Arial, sans-serif" font-size="8" font-weight="700" fill="#ffffff">C</text>
<rect x="10" y="422" width="1490" height="24" fill="#69c26a" opacity="0.9" rx="3"/>
<text x="18" y="439" font-family="Calibri, Arial, sans-serif" font-size="12.5" font-weight="700" fill="#ffffff">Phase 3 — Mise en place de l'infrastructure cloud</text>
<text x="18" y="466.0" font-family="Calibri, Arial, sans-serif" font-size="11" fill="#222222">Sélection et commande de l'hébergement (serveurs dédiés, vRack,...</text>
<rect x="693.9" y="454" width="17.7" height="16" rx="3" ry="3" fill="#69c26a" stroke="#555555" stroke-width="0.6" opacity="0.92"/>
<circle cx="717.6" cy="462.0" r="7" fill="#2E74B5" stroke="#ffffff" stroke-width="1" opacity="1.0"/>
<text x="717.6" y="465.2" text-anchor="middle" font-family="Calibri, Arial, sans-serif" font-size="8" font-weight="700" fill="#ffffff">H</text>
<rect x="10" y="474" width="1490" height="24" fill="#f5f5f5"/>
<text x="18" y="490.0" font-family="Calibri, Arial, sans-serif" font-size="11" fill="#222222">Déploiement du cluster de virtualisation (2 nœuds) + réseau privé</text>
<rect x="711.6" y="478" width="41.2" height="16" rx="3" ry="3" fill="#69c26a" stroke="#555555" stroke-width="0.6" opacity="0.92"/>
<circle cx="758.9" cy="486.0" r="7" fill="#2E74B5" stroke="#ffffff" stroke-width="1" opacity="1.0"/>
<text x="758.9" y="489.2" text-anchor="middle" font-family="Calibri, Arial, sans-serif" font-size="8" font-weight="700" fill="#ffffff">H</text>
<circle cx="773.9" cy="486.0" r="6" fill="#C0392B" stroke="#ffffff" stroke-width="1" opacity="0.75"/>
<text x="773.9" y="489.2" text-anchor="middle" font-family="Calibri, Arial, sans-serif" font-size="8" font-weight="700" fill="#ffffff">T</text>
<text x="18" y="514.0" font-family="Calibri, Arial, sans-serif" font-size="11" fill="#222222">Mise en place du témoin de quorum &amp; tests de tolérance de panne</text>
<rect x="752.9" y="502" width="29.5" height="16" rx="3" ry="3" fill="#69c26a" stroke="#555555" stroke-width="0.6" opacity="0.92"/>
<circle cx="788.3" cy="510.0" r="7" fill="#2E74B5" stroke="#ffffff" stroke-width="1" opacity="1.0"/>
<text x="788.3" y="513.2" text-anchor="middle" font-family="Calibri, Arial, sans-serif" font-size="8" font-weight="700" fill="#ffffff">H</text>
<circle cx="803.3" cy="510.0" r="6" fill="#C0392B" stroke="#ffffff" stroke-width="1" opacity="0.75"/>
<text x="803.3" y="513.2" text-anchor="middle" font-family="Calibri, Arial, sans-serif" font-size="8" font-weight="700" fill="#ffffff">T</text>
<rect x="10" y="522" width="1490" height="24" fill="#f5f5f5"/>
<text x="18" y="538.0" font-family="Calibri, Arial, sans-serif" font-size="11" fill="#222222">Segmentation réseau taggée (MGMT/DMZ/ADMIN) &amp; migration</text>
<rect x="752.9" y="526" width="41.2" height="16" rx="3" ry="3" fill="#69c26a" stroke="#555555" stroke-width="0.6" opacity="0.92"/>
<circle cx="800.1" cy="534.0" r="7" fill="#2E9E5B" stroke="#ffffff" stroke-width="1" opacity="1.0"/>
<text x="800.1" y="537.2" text-anchor="middle" font-family="Calibri, Arial, sans-serif" font-size="8" font-weight="700" fill="#ffffff">Q</text>
<text x="18" y="562.0" font-family="Calibri, Arial, sans-serif" font-size="11" fill="#222222">Fabrication et durcissement du template de provisionnement (VM ...</text>
<rect x="794.1" y="550" width="35.4" height="16" rx="3" ry="3" fill="#69c26a" stroke="#555555" stroke-width="0.6" opacity="0.92"/>
<circle cx="835.5" cy="558.0" r="7" fill="#2E74B5" stroke="#ffffff" stroke-width="1" opacity="1.0"/>
<text x="835.5" y="561.2" text-anchor="middle" font-family="Calibri, Arial, sans-serif" font-size="8" font-weight="700" fill="#ffffff">H</text>
<rect x="10" y="570" width="1490" height="24" fill="#f5f5f5"/>
<text x="18" y="586.0" font-family="Calibri, Arial, sans-serif" font-size="11" fill="#222222">Infrastructure socle disponible</text>
<polygon points="832.4107142857143,575.0 839.4107142857143,582.0 832.4107142857143,589.0 825.4107142857143,582.0" fill="#69c26a" stroke="#333333" stroke-width="1"/>
<circle cx="841.4" cy="582.0" r="7" fill="#C0392B" stroke="#ffffff" stroke-width="1" opacity="1.0"/>
<text x="841.4" y="585.2" text-anchor="middle" font-family="Calibri, Arial, sans-serif" font-size="8" font-weight="700" fill="#ffffff">T</text>
<circle cx="856.4" cy="582.0" r="6" fill="#2E74B5" stroke="#ffffff" stroke-width="1" opacity="0.75"/>
<text x="856.4" y="585.2" text-anchor="middle" font-family="Calibri, Arial, sans-serif" font-size="8" font-weight="700" fill="#ffffff">H</text>
<rect x="10" y="606" width="1490" height="24" fill="#69c26a" opacity="0.9" rx="3"/>
<text x="18" y="623" font-family="Calibri, Arial, sans-serif" font-size="12.5" font-weight="700" fill="#ffffff">Phase 4 — Déploiement des services applicatifs</text>
<text x="18" y="650.0" font-family="Calibri, Arial, sans-serif" font-size="11" fill="#222222">Déploiement du service DNS interne</text>
<rect x="835.4" y="638" width="29.5" height="16" rx="3" ry="3" fill="#69c26a" stroke="#555555" stroke-width="0.6" opacity="0.92"/>
<circle cx="870.8" cy="646.0" r="7" fill="#2E74B5" stroke="#ffffff" stroke-width="1" opacity="1.0"/>
<text x="870.8" y="649.2" text-anchor="middle" font-family="Calibri, Arial, sans-serif" font-size="8" font-weight="700" fill="#ffffff">H</text>
<rect x="10" y="658" width="1490" height="24" fill="#f5f5f5"/>
<text x="18" y="674.0" font-family="Calibri, Arial, sans-serif" font-size="11" fill="#222222">Déploiement et sécurisation de la base de données</text>
<rect x="864.8" y="662" width="23.6" height="16" rx="3" ry="3" fill="#69c26a" stroke="#555555" stroke-width="0.6" opacity="0.92"/>
<circle cx="894.4" cy="670.0" r="7" fill="#2E74B5" stroke="#ffffff" stroke-width="1" opacity="1.0"/>
<text x="894.4" y="673.2" text-anchor="middle" font-family="Calibri, Arial, sans-serif" font-size="8" font-weight="700" fill="#ffffff">H</text>
<text x="18" y="698.0" font-family="Calibri, Arial, sans-serif" font-size="11" fill="#222222">Déploiement, configuration et durcissement du portail de tickets</text>
<rect x="900.2" y="686" width="47.1" height="16" rx="3" ry="3" fill="#69c26a" stroke="#555555" stroke-width="0.6" opacity="0.92"/>
<circle cx="953.3" cy="694.0" r="7" fill="#2E74B5" stroke="#ffffff" stroke-width="1" opacity="1.0"/>
<text x="953.3" y="697.2" text-anchor="middle" font-family="Calibri, Arial, sans-serif" font-size="8" font-weight="700" fill="#ffffff">H</text>
<circle cx="968.3" cy="694.0" r="6" fill="#C0392B" stroke="#ffffff" stroke-width="1" opacity="0.75"/>
<text x="968.3" y="697.2" text-anchor="middle" font-family="Calibri, Arial, sans-serif" font-size="8" font-weight="700" fill="#ffffff">T</text>
<rect x="10" y="706" width="1490" height="24" fill="#f5f5f5"/>
<text x="18" y="722.0" font-family="Calibri, Arial, sans-serif" font-size="11" fill="#222222">Déploiement du relais mail &amp; intégration notifications</text>
<rect x="947.3" y="710" width="23.6" height="16" rx="3" ry="3" fill="#69c26a" stroke="#555555" stroke-width="0.6" opacity="0.92"/>
<circle cx="976.9" cy="718.0" r="7" fill="#2E74B5" stroke="#ffffff" stroke-width="1" opacity="1.0"/>
<text x="976.9" y="721.2" text-anchor="middle" font-family="Calibri, Arial, sans-serif" font-size="8" font-weight="700" fill="#ffffff">H</text>
<text x="18" y="746.0" font-family="Calibri, Arial, sans-serif" font-size="11" fill="#222222">Mise en service de l'accès public &amp; du pare-feu périmétrique</text>
<rect x="835.4" y="734" width="47.1" height="16" rx="3" ry="3" fill="#69c26a" stroke="#555555" stroke-width="0.6" opacity="0.92"/>
<circle cx="888.5" cy="742.0" r="7" fill="#2E9E5B" stroke="#ffffff" stroke-width="1" opacity="1.0"/>
<text x="888.5" y="745.2" text-anchor="middle" font-family="Calibri, Arial, sans-serif" font-size="8" font-weight="700" fill="#ffffff">Q</text>
<circle cx="903.5" cy="742.0" r="6" fill="#C0392B" stroke="#ffffff" stroke-width="1" opacity="0.75"/>
<text x="903.5" y="745.2" text-anchor="middle" font-family="Calibri, Arial, sans-serif" font-size="8" font-weight="700" fill="#ffffff">T</text>
<rect x="10" y="754" width="1490" height="24" fill="#f5f5f5"/>
<text x="18" y="770.0" font-family="Calibri, Arial, sans-serif" font-size="11" fill="#222222">Socle applicatif en service</text>
<polygon points="985.625,759.0 992.625,766.0 985.625,773.0 978.625,766.0" fill="#69c26a" stroke="#333333" stroke-width="1"/>
<circle cx="994.6" cy="766.0" r="7" fill="#C0392B" stroke="#ffffff" stroke-width="1" opacity="1.0"/>
<text x="994.6" y="769.2" text-anchor="middle" font-family="Calibri, Arial, sans-serif" font-size="8" font-weight="700" fill="#ffffff">T</text>
<circle cx="1009.6" cy="766.0" r="6" fill="#2E74B5" stroke="#ffffff" stroke-width="1" opacity="0.75"/>
<text x="1009.6" y="769.2" text-anchor="middle" font-family="Calibri, Arial, sans-serif" font-size="8" font-weight="700" fill="#ffffff">H</text>
<rect x="10" y="790" width="1490" height="24" fill="#e0a05a" opacity="0.9" rx="3"/>
<text x="18" y="807" font-family="Calibri, Arial, sans-serif" font-size="12.5" font-weight="700" fill="#ffffff">Phase 5 — Sécurité &amp; accès</text>
<text x="18" y="834.0" font-family="Calibri, Arial, sans-serif" font-size="11" fill="#222222">Mise en place de la chaîne TLS (autorité de certification interne)</text>
<rect x="988.6" y="822" width="41.2" height="16" rx="3" ry="3" fill="#e0a05a" stroke="#555555" stroke-width="0.6" opacity="0.92"/>
<circle cx="1035.8" cy="830.0" r="7" fill="#2E9E5B" stroke="#ffffff" stroke-width="1" opacity="1.0"/>
<text x="1035.8" y="833.2" text-anchor="middle" font-family="Calibri, Arial, sans-serif" font-size="8" font-weight="700" fill="#ffffff">Q</text>
<rect x="10" y="842" width="1490" height="24" fill="#f5f5f5"/>
<text x="18" y="858.0" font-family="Calibri, Arial, sans-serif" font-size="11" fill="#222222">Déploiement du VPN d'administration</text>
<rect x="988.6" y="846" width="17.7" height="16" rx="3" ry="3" fill="#e0a05a" stroke="#555555" stroke-width="0.6" opacity="0.92"/>
<circle cx="1012.2" cy="854.0" r="7" fill="#2E9E5B" stroke="#ffffff" stroke-width="1" opacity="1.0"/>
<text x="1012.2" y="857.2" text-anchor="middle" font-family="Calibri, Arial, sans-serif" font-size="8" font-weight="700" fill="#ffffff">Q</text>
<text x="18" y="882.0" font-family="Calibri, Arial, sans-serif" font-size="11" fill="#222222">Durcissement systèmes (comptes de service, SSH, secrets)</text>
<rect x="1029.8" y="870" width="17.7" height="16" rx="3" ry="3" fill="#e0a05a" stroke="#555555" stroke-width="0.6" opacity="0.92"/>
<circle cx="1053.5" cy="878.0" r="7" fill="#2E74B5" stroke="#ffffff" stroke-width="1" opacity="1.0"/>
<text x="1053.5" y="881.2" text-anchor="middle" font-family="Calibri, Arial, sans-serif" font-size="8" font-weight="700" fill="#ffffff">H</text>
<circle cx="1068.5" cy="878.0" r="6" fill="#2E9E5B" stroke="#ffffff" stroke-width="1" opacity="0.75"/>
<text x="1068.5" y="881.2" text-anchor="middle" font-family="Calibri, Arial, sans-serif" font-size="8" font-weight="700" fill="#ffffff">Q</text>
<rect x="10" y="890" width="1490" height="24" fill="#f5f5f5"/>
<text x="18" y="906.0" font-family="Calibri, Arial, sans-serif" font-size="11" fill="#222222">Socle sécurité validé</text>
<polygon points="1050.4464285714287,895.0 1057.4464285714287,902.0 1050.4464285714287,909.0 1043.4464285714287,902.0" fill="#e0a05a" stroke="#333333" stroke-width="1"/>
<circle cx="1059.4" cy="902.0" r="7" fill="#C0392B" stroke="#ffffff" stroke-width="1" opacity="1.0"/>
<text x="1059.4" y="905.2" text-anchor="middle" font-family="Calibri, Arial, sans-serif" font-size="8" font-weight="700" fill="#ffffff">T</text>
<circle cx="1074.4" cy="902.0" r="6" fill="#2E9E5B" stroke="#ffffff" stroke-width="1" opacity="0.75"/>
<text x="1074.4" y="905.2" text-anchor="middle" font-family="Calibri, Arial, sans-serif" font-size="8" font-weight="700" fill="#ffffff">Q</text>
<rect x="10" y="926" width="1490" height="24" fill="#e0a05a" opacity="0.9" rx="3"/>
<text x="18" y="943" font-family="Calibri, Arial, sans-serif" font-size="12.5" font-weight="700" fill="#ffffff">Phase 6 — Supervision &amp; sauvegardes</text>
<text x="18" y="970.0" font-family="Calibri, Arial, sans-serif" font-size="11" fill="#222222">Déploiement de la solution de sauvegarde &amp; vérification</text>
<rect x="988.6" y="958" width="23.6" height="16" rx="3" ry="3" fill="#e0a05a" stroke="#555555" stroke-width="0.6" opacity="0.92"/>
<circle cx="1018.1" cy="966.0" r="7" fill="#2E74B5" stroke="#ffffff" stroke-width="1" opacity="1.0"/>
<text x="1018.1" y="969.2" text-anchor="middle" font-family="Calibri, Arial, sans-serif" font-size="8" font-weight="700" fill="#ffffff">H</text>
<circle cx="1033.1" cy="966.0" r="6" fill="#C0392B" stroke="#ffffff" stroke-width="1" opacity="0.75"/>
<text x="1033.1" y="969.2" text-anchor="middle" font-family="Calibri, Arial, sans-serif" font-size="8" font-weight="700" fill="#ffffff">T</text>
<rect x="10" y="978" width="1490" height="24" fill="#f5f5f5"/>
<text x="18" y="994.0" font-family="Calibri, Arial, sans-serif" font-size="11" fill="#222222">Mise en place de la réplication inter-nœuds</text>
<rect x="1023.9" y="982" width="17.7" height="16" rx="3" ry="3" fill="#e0a05a" stroke="#555555" stroke-width="0.6" opacity="0.92"/>
<circle cx="1047.6" cy="990.0" r="7" fill="#2E74B5" stroke="#ffffff" stroke-width="1" opacity="1.0"/>
<text x="1047.6" y="993.2" text-anchor="middle" font-family="Calibri, Arial, sans-serif" font-size="8" font-weight="700" fill="#ffffff">H</text>
<text x="18" y="1018.0" font-family="Calibri, Arial, sans-serif" font-size="11" fill="#222222">Déploiement de la supervision (agents + serveur)</text>
<rect x="988.6" y="1006" width="41.2" height="16" rx="3" ry="3" fill="#e0a05a" stroke="#555555" stroke-width="0.6" opacity="0.92"/>
<circle cx="1035.8" cy="1014.0" r="7" fill="#C0392B" stroke="#ffffff" stroke-width="1" opacity="1.0"/>
<text x="1035.8" y="1017.2" text-anchor="middle" font-family="Calibri, Arial, sans-serif" font-size="8" font-weight="700" fill="#ffffff">T</text>
<rect x="10" y="1026" width="1490" height="24" fill="#f5f5f5"/>
<text x="18" y="1042.0" font-family="Calibri, Arial, sans-serif" font-size="11" fill="#222222">Configuration des alertes &amp; tableau de bord PRA/DR</text>
<rect x="1041.6" y="1030" width="29.5" height="16" rx="3" ry="3" fill="#e0a05a" stroke="#555555" stroke-width="0.6" opacity="0.92"/>
<circle cx="1077.1" cy="1038.0" r="7" fill="#C0392B" stroke="#ffffff" stroke-width="1" opacity="1.0"/>
<text x="1077.1" y="1041.2" text-anchor="middle" font-family="Calibri, Arial, sans-serif" font-size="8" font-weight="700" fill="#ffffff">T</text>
<text x="18" y="1066.0" font-family="Calibri, Arial, sans-serif" font-size="11" fill="#222222">Supervision &amp; sauvegardes opérationnelles</text>
<polygon points="1074.017857142857,1055.0 1081.017857142857,1062.0 1074.017857142857,1069.0 1067.017857142857,1062.0" fill="#e0a05a" stroke="#333333" stroke-width="1"/>
<circle cx="1083.0" cy="1062.0" r="7" fill="#C0392B" stroke="#ffffff" stroke-width="1" opacity="1.0"/>
<text x="1083.0" y="1065.2" text-anchor="middle" font-family="Calibri, Arial, sans-serif" font-size="8" font-weight="700" fill="#ffffff">T</text>
<rect x="10" y="1086" width="1490" height="24" fill="#d9685f" opacity="0.9" rx="3"/>
<text x="18" y="1103" font-family="Calibri, Arial, sans-serif" font-size="12.5" font-weight="700" fill="#ffffff">Phase 7 — Tests &amp; recette PRA/DR</text>
<text x="18" y="1130.0" font-family="Calibri, Arial, sans-serif" font-size="11" fill="#222222">Rédaction des runbooks PRA (sauvegarde, restauration, bascule)</text>
<rect x="1077.0" y="1118" width="41.2" height="16" rx="3" ry="3" fill="#d9685f" stroke="#555555" stroke-width="0.6" opacity="0.92"/>
<circle cx="1124.2" cy="1126.0" r="7" fill="#2E74B5" stroke="#ffffff" stroke-width="1" opacity="1.0"/>
<text x="1124.2" y="1129.2" text-anchor="middle" font-family="Calibri, Arial, sans-serif" font-size="8" font-weight="700" fill="#ffffff">H</text>
<circle cx="1139.2" cy="1126.0" r="6" fill="#C0392B" stroke="#ffffff" stroke-width="1" opacity="0.75"/>
<text x="1139.2" y="1129.2" text-anchor="middle" font-family="Calibri, Arial, sans-serif" font-size="8" font-weight="700" fill="#ffffff">T</text>
<rect x="10" y="1138" width="1490" height="24" fill="#f5f5f5"/>
<text x="18" y="1154.0" font-family="Calibri, Arial, sans-serif" font-size="11" fill="#222222">Test grandeur nature — Incident 1 : perte de stockage primaire ...</text>
<rect x="1118.2" y="1142" width="35.4" height="16" rx="3" ry="3" fill="#d9685f" stroke="#555555" stroke-width="0.6" opacity="0.92"/>
<circle cx="1159.6" cy="1150.0" r="7" fill="#2E74B5" stroke="#ffffff" stroke-width="1" opacity="1.0"/>
<text x="1159.6" y="1153.2" text-anchor="middle" font-family="Calibri, Arial, sans-serif" font-size="8" font-weight="700" fill="#ffffff">H</text>
<circle cx="1174.6" cy="1150.0" r="6" fill="#C0392B" stroke="#ffffff" stroke-width="1" opacity="0.75"/>
<text x="1174.6" y="1153.2" text-anchor="middle" font-family="Calibri, Arial, sans-serif" font-size="8" font-weight="700" fill="#ffffff">T</text>
<text x="18" y="1178.0" font-family="Calibri, Arial, sans-serif" font-size="11" fill="#222222">Test grandeur nature — Incident 2 : suppression massive de donn...</text>
<rect x="1153.6" y="1166" width="23.6" height="16" rx="3" ry="3" fill="#d9685f" stroke="#555555" stroke-width="0.6" opacity="0.92"/>
<circle cx="1183.1" cy="1174.0" r="7" fill="#2E74B5" stroke="#ffffff" stroke-width="1" opacity="1.0"/>
<text x="1183.1" y="1177.2" text-anchor="middle" font-family="Calibri, Arial, sans-serif" font-size="8" font-weight="700" fill="#ffffff">H</text>
<circle cx="1198.1" cy="1174.0" r="6" fill="#C0392B" stroke="#ffffff" stroke-width="1" opacity="0.75"/>
<text x="1198.1" y="1177.2" text-anchor="middle" font-family="Calibri, Arial, sans-serif" font-size="8" font-weight="700" fill="#ffffff">T</text>
<rect x="10" y="1186" width="1490" height="24" fill="#f5f5f5"/>
<text x="18" y="1202.0" font-family="Calibri, Arial, sans-serif" font-size="11" fill="#222222">Test de bascule sur site de secours &amp; retour arrière</text>
<rect x="1188.9" y="1190" width="23.6" height="16" rx="3" ry="3" fill="#d9685f" stroke="#555555" stroke-width="0.6" opacity="0.92"/>
<circle cx="1218.5" cy="1198.0" r="7" fill="#2E74B5" stroke="#ffffff" stroke-width="1" opacity="1.0"/>
<text x="1218.5" y="1201.2" text-anchor="middle" font-family="Calibri, Arial, sans-serif" font-size="8" font-weight="700" fill="#ffffff">H</text>
<circle cx="1233.5" cy="1198.0" r="6" fill="#2E9E5B" stroke="#ffffff" stroke-width="1" opacity="0.75"/>
<text x="1233.5" y="1201.2" text-anchor="middle" font-family="Calibri, Arial, sans-serif" font-size="8" font-weight="700" fill="#ffffff">Q</text>
<text x="18" y="1226.0" font-family="Calibri, Arial, sans-serif" font-size="11" fill="#222222">Recette fonctionnelle et technique complète (contre-essais inclus)</text>
<rect x="1212.5" y="1214" width="29.5" height="16" rx="3" ry="3" fill="#d9685f" stroke="#555555" stroke-width="0.6" opacity="0.92"/>
<circle cx="1248.0" cy="1222.0" r="7" fill="#C0392B" stroke="#ffffff" stroke-width="1" opacity="1.0"/>
<text x="1248.0" y="1225.2" text-anchor="middle" font-family="Calibri, Arial, sans-serif" font-size="8" font-weight="700" fill="#ffffff">T</text>
<circle cx="1263.0" cy="1222.0" r="6" fill="#8E44AD" stroke="#ffffff" stroke-width="1" opacity="0.75"/>
<text x="1263.0" y="1225.2" text-anchor="middle" font-family="Calibri, Arial, sans-serif" font-size="8" font-weight="700" fill="#ffffff">C</text>
<rect x="10" y="1234" width="1490" height="24" fill="#f5f5f5"/>
<text x="18" y="1250.0" font-family="Calibri, Arial, sans-serif" font-size="11" fill="#222222">PRA/DR validé (RPO/RTO prouvés)</text>
<polygon points="1244.9107142857142,1239.0 1251.9107142857142,1246.0 1244.9107142857142,1253.0 1237.9107142857142,1246.0" fill="#d9685f" stroke="#333333" stroke-width="1"/>
<circle cx="1253.9" cy="1246.0" r="7" fill="#C0392B" stroke="#ffffff" stroke-width="1" opacity="1.0"/>
<text x="1253.9" y="1249.2" text-anchor="middle" font-family="Calibri, Arial, sans-serif" font-size="8" font-weight="700" fill="#ffffff">T</text>
<circle cx="1268.9" cy="1246.0" r="6" fill="#2E74B5" stroke="#ffffff" stroke-width="1" opacity="0.75"/>
<text x="1268.9" y="1249.2" text-anchor="middle" font-family="Calibri, Arial, sans-serif" font-size="8" font-weight="700" fill="#ffffff">H</text>
<rect x="10" y="1270" width="1490" height="24" fill="#a993d1" opacity="0.9" rx="3"/>
<text x="18" y="1287" font-family="Calibri, Arial, sans-serif" font-size="12.5" font-weight="700" fill="#ffffff">Phase 8 — Documentation &amp; transfert de compétences</text>
<text x="18" y="1314.0" font-family="Calibri, Arial, sans-serif" font-size="11" fill="#222222">Rédaction du guide utilisateur</text>
<rect x="988.6" y="1302" width="17.7" height="16" rx="3" ry="3" fill="#a993d1" stroke="#555555" stroke-width="0.6" opacity="0.92"/>
<circle cx="1012.2" cy="1310.0" r="7" fill="#C0392B" stroke="#ffffff" stroke-width="1" opacity="1.0"/>
<text x="1012.2" y="1313.2" text-anchor="middle" font-family="Calibri, Arial, sans-serif" font-size="8" font-weight="700" fill="#ffffff">T</text>
<rect x="10" y="1322" width="1490" height="24" fill="#f5f5f5"/>
<text x="18" y="1338.0" font-family="Calibri, Arial, sans-serif" font-size="11" fill="#222222">Consolidation but, budget &amp; ressources</text>
<rect x="693.9" y="1326" width="17.7" height="16" rx="3" ry="3" fill="#a993d1" stroke="#555555" stroke-width="0.6" opacity="0.92"/>
<circle cx="717.6" cy="1334.0" r="7" fill="#2E9E5B" stroke="#ffffff" stroke-width="1" opacity="1.0"/>
<text x="717.6" y="1337.2" text-anchor="middle" font-family="Calibri, Arial, sans-serif" font-size="8" font-weight="700" fill="#ffffff">Q</text>
<text x="18" y="1362.0" font-family="Calibri, Arial, sans-serif" font-size="11" fill="#222222">Consolidation du journal de preuves &amp; dossier de recette</text>
<rect x="1247.9" y="1350" width="35.4" height="16" rx="3" ry="3" fill="#a993d1" stroke="#555555" stroke-width="0.6" opacity="0.92"/>
<circle cx="1289.2" cy="1358.0" r="7" fill="#2E74B5" stroke="#ffffff" stroke-width="1" opacity="1.0"/>
<text x="1289.2" y="1361.2" text-anchor="middle" font-family="Calibri, Arial, sans-serif" font-size="8" font-weight="700" fill="#ffffff">H</text>
<circle cx="1304.2" cy="1358.0" r="6" fill="#C0392B" stroke="#ffffff" stroke-width="1" opacity="0.75"/>
<text x="1304.2" y="1361.2" text-anchor="middle" font-family="Calibri, Arial, sans-serif" font-size="8" font-weight="700" fill="#ffffff">T</text>
<rect x="10" y="1370" width="1490" height="24" fill="#f5f5f5"/>
<text x="18" y="1386.0" font-family="Calibri, Arial, sans-serif" font-size="11" fill="#222222">Sessions de transfert de compétences (exploitant, référent PRA)</text>
<rect x="1283.2" y="1374" width="41.2" height="16" rx="3" ry="3" fill="#a993d1" stroke="#555555" stroke-width="0.6" opacity="0.92"/>
<circle cx="1330.5" cy="1382.0" r="7" fill="#2E74B5" stroke="#ffffff" stroke-width="1" opacity="1.0"/>
<text x="1330.5" y="1385.2" text-anchor="middle" font-family="Calibri, Arial, sans-serif" font-size="8" font-weight="700" fill="#ffffff">H</text>
<circle cx="1345.5" cy="1382.0" r="6" fill="#2E9E5B" stroke="#ffffff" stroke-width="1" opacity="0.75"/>
<text x="1345.5" y="1385.2" text-anchor="middle" font-family="Calibri, Arial, sans-serif" font-size="8" font-weight="700" fill="#ffffff">Q</text>
<circle cx="1360.5" cy="1382.0" r="6" fill="#C0392B" stroke="#ffffff" stroke-width="1" opacity="0.75"/>
<text x="1360.5" y="1385.2" text-anchor="middle" font-family="Calibri, Arial, sans-serif" font-size="8" font-weight="700" fill="#ffffff">T</text>
<text x="18" y="1410.0" font-family="Calibri, Arial, sans-serif" font-size="11" fill="#222222">Livrables documentaires finalisés</text>
<polygon points="1327.4107142857142,1399.0 1334.4107142857142,1406.0 1327.4107142857142,1413.0 1320.4107142857142,1406.0" fill="#a993d1" stroke="#333333" stroke-width="1"/>
<circle cx="1336.4" cy="1406.0" r="7" fill="#C0392B" stroke="#ffffff" stroke-width="1" opacity="1.0"/>
<text x="1336.4" y="1409.2" text-anchor="middle" font-family="Calibri, Arial, sans-serif" font-size="8" font-weight="700" fill="#ffffff">T</text>
<rect x="10" y="1430" width="1490" height="24" fill="#a993d1" opacity="0.9" rx="3"/>
<text x="18" y="1447" font-family="Calibri, Arial, sans-serif" font-size="12.5" font-weight="700" fill="#ffffff">Phase 9 — Clôture &amp; présentation finale</text>
<text x="18" y="1474.0" font-family="Calibri, Arial, sans-serif" font-size="11" fill="#222222">Préparation du support de présentation finale</text>
<rect x="1330.4" y="1462" width="35.4" height="16" rx="3" ry="3" fill="#a993d1" stroke="#555555" stroke-width="0.6" opacity="0.92"/>
<circle cx="1371.7" cy="1470.0" r="7" fill="#C0392B" stroke="#ffffff" stroke-width="1" opacity="1.0"/>
<text x="1371.7" y="1473.2" text-anchor="middle" font-family="Calibri, Arial, sans-serif" font-size="8" font-weight="700" fill="#ffffff">T</text>
<rect x="10" y="1482" width="1490" height="24" fill="#f5f5f5"/>
<text x="18" y="1498.0" font-family="Calibri, Arial, sans-serif" font-size="11" fill="#222222">Répétitions générales (jeu de rôle jury client)</text>
<rect x="1365.7" y="1486" width="17.7" height="16" rx="3" ry="3" fill="#a993d1" stroke="#555555" stroke-width="0.6" opacity="0.92"/>
<circle cx="1389.4" cy="1494.0" r="7" fill="#2E74B5" stroke="#ffffff" stroke-width="1" opacity="1.0"/>
<text x="1389.4" y="1497.2" text-anchor="middle" font-family="Calibri, Arial, sans-serif" font-size="8" font-weight="700" fill="#ffffff">H</text>
<circle cx="1404.4" cy="1494.0" r="6" fill="#2E9E5B" stroke="#ffffff" stroke-width="1" opacity="0.75"/>
<text x="1404.4" y="1497.2" text-anchor="middle" font-family="Calibri, Arial, sans-serif" font-size="8" font-weight="700" fill="#ffffff">Q</text>
<circle cx="1419.4" cy="1494.0" r="6" fill="#C0392B" stroke="#ffffff" stroke-width="1" opacity="0.75"/>
<text x="1419.4" y="1497.2" text-anchor="middle" font-family="Calibri, Arial, sans-serif" font-size="8" font-weight="700" fill="#ffffff">T</text>
<text x="18" y="1522.0" font-family="Calibri, Arial, sans-serif" font-size="11" fill="#222222">Présentation finale &amp; recette client</text>
<rect x="1395.2" y="1510" width="11.8" height="16" rx="3" ry="3" fill="#a993d1" stroke="#555555" stroke-width="0.6" opacity="0.92"/>
<circle cx="1413.0" cy="1518.0" r="7" fill="#C0392B" stroke="#ffffff" stroke-width="1" opacity="1.0"/>
<text x="1413.0" y="1521.2" text-anchor="middle" font-family="Calibri, Arial, sans-serif" font-size="8" font-weight="700" fill="#ffffff">T</text>
<circle cx="1428.0" cy="1518.0" r="6" fill="#2E74B5" stroke="#ffffff" stroke-width="1" opacity="0.75"/>
<text x="1428.0" y="1521.2" text-anchor="middle" font-family="Calibri, Arial, sans-serif" font-size="8" font-weight="700" fill="#ffffff">H</text>
<circle cx="1443.0" cy="1518.0" r="6" fill="#2E9E5B" stroke="#ffffff" stroke-width="1" opacity="0.75"/>
<text x="1443.0" y="1521.2" text-anchor="middle" font-family="Calibri, Arial, sans-serif" font-size="8" font-weight="700" fill="#ffffff">Q</text>
<circle cx="1458.0" cy="1518.0" r="6" fill="#8E44AD" stroke="#ffffff" stroke-width="1" opacity="0.75"/>
<text x="1458.0" y="1521.2" text-anchor="middle" font-family="Calibri, Arial, sans-serif" font-size="8" font-weight="700" fill="#ffffff">C</text>
<rect x="10" y="1530" width="1490" height="24" fill="#f5f5f5"/>
<text x="18" y="1546.0" font-family="Calibri, Arial, sans-serif" font-size="11" fill="#222222">Levée des réserves &amp; clôture administrative du projet</text>
<rect x="1407.0" y="1534" width="11.8" height="16" rx="3" ry="3" fill="#a993d1" stroke="#555555" stroke-width="0.6" opacity="0.92"/>
<circle cx="1424.8" cy="1542.0" r="7" fill="#2E74B5" stroke="#ffffff" stroke-width="1" opacity="1.0"/>
<text x="1424.8" y="1545.2" text-anchor="middle" font-family="Calibri, Arial, sans-serif" font-size="8" font-weight="700" fill="#ffffff">H</text>
<text x="18" y="1570.0" font-family="Calibri, Arial, sans-serif" font-size="11" fill="#222222">Projet livré</text>
<polygon points="1421.6964285714287,1559.0 1428.6964285714287,1566.0 1421.6964285714287,1573.0 1414.6964285714287,1566.0" fill="#a993d1" stroke="#333333" stroke-width="1"/>
<circle cx="1430.6" cy="1566.0" r="7" fill="#C0392B" stroke="#ffffff" stroke-width="1" opacity="1.0"/>
<text x="1430.6" y="1569.2" text-anchor="middle" font-family="Calibri, Arial, sans-serif" font-size="8" font-weight="700" fill="#ffffff">T</text>
<circle cx="1445.6" cy="1566.0" r="6" fill="#2E74B5" stroke="#ffffff" stroke-width="1" opacity="0.75"/>
<text x="1445.6" y="1569.2" text-anchor="middle" font-family="Calibri, Arial, sans-serif" font-size="8" font-weight="700" fill="#ffffff">H</text>
<text x="10" y="1612" font-family="Calibri, Arial, sans-serif" font-size="12" font-weight="700" fill="#222222">Légende — phases</text>
<rect x="10" y="1616" width="12" height="12" fill="#8cb6ce" rx="2"/>
<text x="27" y="1626" font-family="Calibri, Arial, sans-serif" font-size="9.5" fill="#333333">Cadrage &amp; analyse des besoins</text>
<rect x="250" y="1616" width="12" height="12" fill="#8cb6ce" rx="2"/>
<text x="267" y="1626" font-family="Calibri, Arial, sans-serif" font-size="9.5" fill="#333333">Conception de l'architecture</text>
<rect x="490" y="1616" width="12" height="12" fill="#69c26a" rx="2"/>
<text x="507" y="1626" font-family="Calibri, Arial, sans-serif" font-size="9.5" fill="#333333">Mise en place de l'infrastructure cloud</text>
<rect x="730" y="1616" width="12" height="12" fill="#69c26a" rx="2"/>
<text x="747" y="1626" font-family="Calibri, Arial, sans-serif" font-size="9.5" fill="#333333">Déploiement des services applicatifs</text>
<rect x="10" y="1634" width="12" height="12" fill="#e0a05a" rx="2"/>
<text x="27" y="1644" font-family="Calibri, Arial, sans-serif" font-size="9.5" fill="#333333">Sécurité &amp; accès</text>
<rect x="250" y="1634" width="12" height="12" fill="#e0a05a" rx="2"/>
<text x="267" y="1644" font-family="Calibri, Arial, sans-serif" font-size="9.5" fill="#333333">Supervision &amp; sauvegardes</text>
<rect x="490" y="1634" width="12" height="12" fill="#d9685f" rx="2"/>
<text x="507" y="1644" font-family="Calibri, Arial, sans-serif" font-size="9.5" fill="#333333">Tests &amp; recette PRA/DR</text>
<rect x="730" y="1634" width="12" height="12" fill="#a993d1" rx="2"/>
<text x="747" y="1644" font-family="Calibri, Arial, sans-serif" font-size="9.5" fill="#333333">Documentation &amp; transfert de compétences</text>
<rect x="10" y="1652" width="12" height="12" fill="#a993d1" rx="2"/>
<text x="27" y="1662" font-family="Calibri, Arial, sans-serif" font-size="9.5" fill="#333333">Clôture &amp; présentation finale</text>
<text x="10" y="1702" font-family="Calibri, Arial, sans-serif" font-size="12" font-weight="700" fill="#222222">Légende — équipe</text>
<circle cx="16" cy="1716" r="7" fill="#2E74B5" stroke="#ffffff" stroke-width="1"/>
<text x="16" y="1719" text-anchor="middle" font-family="Calibri, Arial, sans-serif" font-size="8" font-weight="700" fill="#ffffff">H</text>
<text x="28" y="1720" font-family="Calibri, Arial, sans-serif" font-size="10.5" fill="#333333">Harry</text>
<circle cx="256" cy="1716" r="7" fill="#2E9E5B" stroke="#ffffff" stroke-width="1"/>
<text x="256" y="1719" text-anchor="middle" font-family="Calibri, Arial, sans-serif" font-size="8" font-weight="700" fill="#ffffff">Q</text>
<text x="268" y="1720" font-family="Calibri, Arial, sans-serif" font-size="10.5" fill="#333333">Quentin</text>
<circle cx="496" cy="1716" r="7" fill="#C0392B" stroke="#ffffff" stroke-width="1"/>
<text x="496" y="1719" text-anchor="middle" font-family="Calibri, Arial, sans-serif" font-size="8" font-weight="700" fill="#ffffff">T</text>
<text x="508" y="1720" font-family="Calibri, Arial, sans-serif" font-size="10.5" fill="#333333">Thibault</text>
<circle cx="736" cy="1716" r="7" fill="#8E44AD" stroke="#ffffff" stroke-width="1"/>
<text x="736" y="1719" text-anchor="middle" font-family="Calibri, Arial, sans-serif" font-size="8" font-weight="700" fill="#ffffff">C</text>
<text x="748" y="1720" font-family="Calibri, Arial, sans-serif" font-size="10.5" fill="#333333">Comité client</text>
</svg>